<mxfile host="app.diagrams.net" agent="Mozilla/5.0 (Windows NT 10.0; Win64; x64) AppleWebKit/537.36 (KHTML, like Gecko) Chrome/138.0.0.0 Safari/537.36" version="28.0.7">
  <diagram name="Página-1" id="effdNmgxeIeh1aCy71QI">
    <mxGraphModel dx="1426" dy="811" grid="1" gridSize="10" guides="1" tooltips="1" connect="1" arrows="1" fold="1" page="1" pageScale="1" pageWidth="3300" pageHeight="4681" math="0" shadow="0">
      <root>
        <mxCell id="0" />
        <mxCell id="1" parent="0" />
        <mxCell id="4PhAlAlo2g3u8WmUS1jU-1" value="Exclusão de perfil" style="shape=umlFrame;whiteSpace=wrap;html=1;pointerEvents=0;" vertex="1" parent="1">
          <mxGeometry x="1140" y="730" width="780" height="500" as="geometry" />
        </mxCell>
        <mxCell id="4PhAlAlo2g3u8WmUS1jU-2" value="" style="shape=umlLifeline;perimeter=lifelinePerimeter;whiteSpace=wrap;html=1;container=1;dropTarget=0;collapsible=0;recursiveResize=0;outlineConnect=0;portConstraint=eastwest;newEdgeStyle={&quot;curved&quot;:0,&quot;rounded&quot;:0};participant=umlActor;" vertex="1" parent="1">
          <mxGeometry x="1240" y="770" width="20" height="430" as="geometry" />
        </mxCell>
        <mxCell id="4PhAlAlo2g3u8WmUS1jU-3" value="" style="html=1;points=[[0,0,0,0,5],[0,1,0,0,-5],[1,0,0,0,5],[1,1,0,0,-5]];perimeter=orthogonalPerimeter;outlineConnect=0;targetShapes=umlLifeline;portConstraint=eastwest;newEdgeStyle={&quot;curved&quot;:0,&quot;rounded&quot;:0};" vertex="1" parent="4PhAlAlo2g3u8WmUS1jU-2">
          <mxGeometry x="5" y="80" width="10" height="330" as="geometry" />
        </mxCell>
        <mxCell id="4PhAlAlo2g3u8WmUS1jU-4" value="Front End" style="shape=umlLifeline;perimeter=lifelinePerimeter;whiteSpace=wrap;html=1;container=1;dropTarget=0;collapsible=0;recursiveResize=0;outlineConnect=0;portConstraint=eastwest;newEdgeStyle={&quot;curved&quot;:0,&quot;rounded&quot;:0};" vertex="1" parent="1">
          <mxGeometry x="1480" y="770" width="100" height="420" as="geometry" />
        </mxCell>
        <mxCell id="4PhAlAlo2g3u8WmUS1jU-5" value="" style="html=1;points=[[0,0,0,0,5],[0,1,0,0,-5],[1,0,0,0,5],[1,1,0,0,-5]];perimeter=orthogonalPerimeter;outlineConnect=0;targetShapes=umlLifeline;portConstraint=eastwest;newEdgeStyle={&quot;curved&quot;:0,&quot;rounded&quot;:0};" vertex="1" parent="4PhAlAlo2g3u8WmUS1jU-4">
          <mxGeometry x="45" y="80" width="10" height="80" as="geometry" />
        </mxCell>
        <mxCell id="4PhAlAlo2g3u8WmUS1jU-6" value="" style="html=1;points=[[0,0,0,0,5],[0,1,0,0,-5],[1,0,0,0,5],[1,1,0,0,-5]];perimeter=orthogonalPerimeter;outlineConnect=0;targetShapes=umlLifeline;portConstraint=eastwest;newEdgeStyle={&quot;curved&quot;:0,&quot;rounded&quot;:0};" vertex="1" parent="4PhAlAlo2g3u8WmUS1jU-4">
          <mxGeometry x="45" y="190" width="10" height="170" as="geometry" />
        </mxCell>
        <mxCell id="4PhAlAlo2g3u8WmUS1jU-7" value="Back End" style="shape=umlLifeline;perimeter=lifelinePerimeter;whiteSpace=wrap;html=1;container=1;dropTarget=0;collapsible=0;recursiveResize=0;outlineConnect=0;portConstraint=eastwest;newEdgeStyle={&quot;curved&quot;:0,&quot;rounded&quot;:0};" vertex="1" parent="1">
          <mxGeometry x="1680" y="770" width="100" height="410" as="geometry" />
        </mxCell>
        <mxCell id="4PhAlAlo2g3u8WmUS1jU-8" style="edgeStyle=orthogonalEdgeStyle;rounded=0;orthogonalLoop=1;jettySize=auto;html=1;curved=0;exitX=0;exitY=0;exitDx=0;exitDy=5;exitPerimeter=0;" edge="1" parent="4PhAlAlo2g3u8WmUS1jU-7" source="4PhAlAlo2g3u8WmUS1jU-9">
          <mxGeometry relative="1" as="geometry">
            <mxPoint x="45.333333333333485" y="204.66666666666674" as="targetPoint" />
          </mxGeometry>
        </mxCell>
        <mxCell id="4PhAlAlo2g3u8WmUS1jU-9" value="" style="html=1;points=[[0,0,0,0,5],[0,1,0,0,-5],[1,0,0,0,5],[1,1,0,0,-5]];perimeter=orthogonalPerimeter;outlineConnect=0;targetShapes=umlLifeline;portConstraint=eastwest;newEdgeStyle={&quot;curved&quot;:0,&quot;rounded&quot;:0};" vertex="1" parent="4PhAlAlo2g3u8WmUS1jU-7">
          <mxGeometry x="45" y="200" width="10" height="150" as="geometry" />
        </mxCell>
        <mxCell id="4PhAlAlo2g3u8WmUS1jU-10" value="" style="html=1;points=[[0,0,0,0,5],[0,1,0,0,-5],[1,0,0,0,5],[1,1,0,0,-5]];perimeter=orthogonalPerimeter;outlineConnect=0;targetShapes=umlLifeline;portConstraint=eastwest;newEdgeStyle={&quot;curved&quot;:0,&quot;rounded&quot;:0};" vertex="1" parent="4PhAlAlo2g3u8WmUS1jU-7">
          <mxGeometry x="55" y="220" width="10" height="40" as="geometry" />
        </mxCell>
        <mxCell id="4PhAlAlo2g3u8WmUS1jU-11" value="5. Verifica a senha" style="html=1;align=left;spacingLeft=2;endArrow=block;rounded=0;edgeStyle=orthogonalEdgeStyle;curved=0;rounded=0;" edge="1" parent="4PhAlAlo2g3u8WmUS1jU-7" target="4PhAlAlo2g3u8WmUS1jU-10">
          <mxGeometry relative="1" as="geometry">
            <mxPoint x="60" y="210" as="sourcePoint" />
            <Array as="points">
              <mxPoint x="90" y="230" />
            </Array>
          </mxGeometry>
        </mxCell>
        <mxCell id="4PhAlAlo2g3u8WmUS1jU-22" value="" style="html=1;points=[[0,0,0,0,5],[0,1,0,0,-5],[1,0,0,0,5],[1,1,0,0,-5]];perimeter=orthogonalPerimeter;outlineConnect=0;targetShapes=umlLifeline;portConstraint=eastwest;newEdgeStyle={&quot;curved&quot;:0,&quot;rounded&quot;:0};" vertex="1" parent="4PhAlAlo2g3u8WmUS1jU-7">
          <mxGeometry x="55" y="290" width="10" height="40" as="geometry" />
        </mxCell>
        <mxCell id="4PhAlAlo2g3u8WmUS1jU-23" value="6. Atualiza os dados" style="html=1;align=left;spacingLeft=2;endArrow=block;rounded=0;edgeStyle=orthogonalEdgeStyle;curved=0;rounded=0;" edge="1" target="4PhAlAlo2g3u8WmUS1jU-22" parent="4PhAlAlo2g3u8WmUS1jU-7">
          <mxGeometry relative="1" as="geometry">
            <mxPoint x="60" y="270" as="sourcePoint" />
            <Array as="points">
              <mxPoint x="90" y="300" />
            </Array>
          </mxGeometry>
        </mxCell>
        <mxCell id="4PhAlAlo2g3u8WmUS1jU-12" value="1. Usuário clica no botão de excluir conta" style="html=1;verticalAlign=bottom;endArrow=block;curved=0;rounded=0;entryX=0;entryY=0;entryDx=0;entryDy=5;entryPerimeter=0;" edge="1" parent="1" source="4PhAlAlo2g3u8WmUS1jU-2" target="4PhAlAlo2g3u8WmUS1jU-5">
          <mxGeometry relative="1" as="geometry">
            <mxPoint x="1255" y="855" as="sourcePoint" />
            <mxPoint x="1480" y="855" as="targetPoint" />
          </mxGeometry>
        </mxCell>
        <mxCell id="4PhAlAlo2g3u8WmUS1jU-13" value="2. Solicita a senha do usuário" style="html=1;verticalAlign=bottom;endArrow=open;dashed=1;endSize=8;curved=0;rounded=0;exitX=0;exitY=1;exitDx=0;exitDy=-5;exitPerimeter=0;" edge="1" parent="1" source="4PhAlAlo2g3u8WmUS1jU-5" target="4PhAlAlo2g3u8WmUS1jU-2">
          <mxGeometry relative="1" as="geometry">
            <mxPoint x="1240" y="925" as="targetPoint" />
            <mxPoint x="1480" y="925" as="sourcePoint" />
          </mxGeometry>
        </mxCell>
        <mxCell id="4PhAlAlo2g3u8WmUS1jU-14" value="3. Insere senha" style="html=1;verticalAlign=bottom;endArrow=block;curved=0;rounded=0;entryX=0;entryY=0;entryDx=0;entryDy=5;entryPerimeter=0;" edge="1" parent="1" source="4PhAlAlo2g3u8WmUS1jU-2" target="4PhAlAlo2g3u8WmUS1jU-6">
          <mxGeometry relative="1" as="geometry">
            <mxPoint x="1260" y="965" as="sourcePoint" />
          </mxGeometry>
        </mxCell>
        <mxCell id="4PhAlAlo2g3u8WmUS1jU-15" value="8. Exibe mensagem de sucesso e&amp;nbsp;&lt;div&gt;redireciona para a página de login&lt;/div&gt;" style="html=1;verticalAlign=bottom;endArrow=open;dashed=1;endSize=8;curved=0;rounded=0;exitX=0;exitY=1;exitDx=0;exitDy=-5;exitPerimeter=0;" edge="1" parent="1" source="4PhAlAlo2g3u8WmUS1jU-6" target="4PhAlAlo2g3u8WmUS1jU-3">
          <mxGeometry relative="1" as="geometry">
            <mxPoint x="1565" y="1035" as="targetPoint" />
            <mxPoint x="1480" y="1035" as="sourcePoint" />
          </mxGeometry>
        </mxCell>
        <mxCell id="4PhAlAlo2g3u8WmUS1jU-16" value="4. Envia a senha" style="html=1;verticalAlign=bottom;endArrow=block;curved=0;rounded=0;entryX=0.5;entryY=0.071;entryDx=0;entryDy=0;entryPerimeter=0;" edge="1" parent="1" source="4PhAlAlo2g3u8WmUS1jU-6" target="4PhAlAlo2g3u8WmUS1jU-9">
          <mxGeometry relative="1" as="geometry">
            <mxPoint x="1810" y="1005" as="sourcePoint" />
            <mxPoint x="1720" y="975" as="targetPoint" />
          </mxGeometry>
        </mxCell>
        <mxCell id="4PhAlAlo2g3u8WmUS1jU-17" value="7. Retorna &quot;Perfil Excluído&quot;" style="html=1;verticalAlign=bottom;endArrow=open;dashed=1;endSize=8;curved=0;rounded=0;exitX=0.5;exitY=0.929;exitDx=0;exitDy=0;exitPerimeter=0;" edge="1" parent="1" source="4PhAlAlo2g3u8WmUS1jU-9" target="4PhAlAlo2g3u8WmUS1jU-4">
          <mxGeometry relative="1" as="geometry">
            <mxPoint x="1810" y="1075" as="targetPoint" />
            <mxPoint x="1720" y="1035" as="sourcePoint" />
          </mxGeometry>
        </mxCell>
        <mxCell id="4PhAlAlo2g3u8WmUS1jU-29" value="Usuário" style="text;strokeColor=none;fillColor=none;spacingLeft=4;spacingRight=4;overflow=hidden;rotatable=0;points=[[0,0.5],[1,0.5]];portConstraint=eastwest;fontSize=12;whiteSpace=wrap;html=1;" vertex="1" parent="1">
          <mxGeometry x="1220" y="740" width="70" height="30" as="geometry" />
        </mxCell>
        <mxCell id="4PhAlAlo2g3u8WmUS1jU-30" value="Fluxo principal: Exclusão de Perfil" style="text;strokeColor=none;fillColor=none;spacingLeft=4;spacingRight=4;overflow=hidden;rotatable=0;points=[[0,0.5],[1,0.5]];portConstraint=eastwest;fontSize=24;whiteSpace=wrap;html=1;fontStyle=1" vertex="1" parent="1">
          <mxGeometry x="1320" y="670" width="467.5" height="30" as="geometry" />
        </mxCell>
        <mxCell id="4PhAlAlo2g3u8WmUS1jU-31" value="Obs: Usuário já logado" style="text;strokeColor=none;fillColor=none;spacingLeft=4;spacingRight=4;overflow=hidden;rotatable=0;points=[[0,0.5],[1,0.5]];portConstraint=eastwest;fontSize=24;whiteSpace=wrap;html=1;fontStyle=0;align=center;" vertex="1" parent="1">
          <mxGeometry x="1430" y="1250" width="260" height="50" as="geometry" />
        </mxCell>
      </root>
    </mxGraphModel>
  </diagram>
</mxfile>
